<svg xmlns="http://www.w3.org/2000/svg" xmlns:xlink="http://www.w3.org/1999/xlink" width="530.163" height="460.299" x="0" y="0" version="1.1" viewBox="0 0 530.163 460.299" xml:space="preserve" style="enable-background:new 0 0 530.163 460.299"><switch><g><g id="Layer_5"><rect style="fill:#fff" width="530.163" height="460.299"/></g><g id="layerGraphics"><g id="elements_layers"><polyline style="fill:none;stroke:#444545;stroke-width:1.3333;stroke-miterlimit:10" points="272.444 83.847 272.444 405.664 295.187 405.664"/><polyline style="fill:none;stroke:#444545;stroke-width:1.3333;stroke-miterlimit:10" points="279.216 84.124 279.216 278.75 295.187 278.75"/><polyline style="fill:none;stroke:#444545;stroke-width:1.3333;stroke-miterlimit:10" points="285.618 81.868 285.618 153.218 292.947 153.218"/><line style="fill:none;stroke:#444545;stroke-width:1.3333;stroke-miterlimit:10" x1="262.946" x2="188.614" y1="77.659" y2="77.659"/><line style="fill:none;stroke:#444545;stroke-width:1.3333;stroke-miterlimit:10" x1="77.352" x2="77.352" y1="180.48" y2="194.796"/><line style="fill:none;stroke:#444545;stroke-width:1.3333;stroke-miterlimit:10" x1="23.375" x2="23.375" y1="180.48" y2="194.796"/><line style="fill:none;stroke:#444545;stroke-width:1.3333;stroke-miterlimit:10" x1="131.328" x2="131.328" y1="180.48" y2="194.796"/><polyline style="fill:none;stroke:#444545;stroke-width:1.3333;stroke-miterlimit:10" points="160.504 110.409 160.504 195.028 23.376 195.028 5.667 195.028"/><rect style="fill:#97caeb" width="59.072" height="65.5" x="130.968" y="44.908"/><g><polygon style="fill:#3d4543" points="167.634 90.742 162.501 86.266 167.634 81.868 167.634 84.272 176.726 84.272 176.726 88.486 167.634 88.486"/><circle style="fill:none;stroke:#3d4543;stroke-width:1.3333;stroke-linecap:round" cx="160.504" cy="86.166" r="17.66"/><polygon style="fill:#3d4543" points="153.489 81.868 158.622 86.344 153.489 90.742 153.489 88.338 144.396 88.338 144.396 84.124 153.489 84.124"/><polygon style="fill:#3d4543" points="165.498 97.631 161.022 102.765 156.624 97.631 159.028 97.631 159.028 88.539 163.242 88.539 163.242 97.631"/><polygon style="fill:#3d4543" points="156.624 74.895 161.099 69.762 165.498 74.895 163.094 74.895 163.094 83.988 158.88 83.988 158.88 74.895"/></g><g><path style="fill:none;stroke:#3d4543;stroke-width:1.3333;stroke-linecap:round" d="M93.62,180.48H61.083 c-0.792,0-1.44-0.648-1.44-1.44v-32.537c0-0.792,0.648-1.44,1.44-1.44H93.62c0.792,0,1.44,0.648,1.44,1.44v32.537 C95.06,179.832,94.412,180.48,93.62,180.48z"/></g><g><path style="fill:none;stroke:#64b145;stroke-width:1.3333;stroke-linecap:round" d="M39.644,180.48H7.107 c-0.792,0-1.44-0.648-1.44-1.44v-32.537c0-0.792,0.648-1.44,1.44-1.44h32.537c0.792,0,1.44,0.648,1.44,1.44v32.537 C41.084,179.832,40.436,180.48,39.644,180.48z"/></g><g><path style="fill:none;stroke:#3d4543;stroke-width:1.3333;stroke-linecap:round" d="M147.597,180.48H115.06 c-0.792,0-1.44-0.648-1.44-1.44v-32.537c0-0.792,0.648-1.44,1.44-1.44h32.537c0.792,0,1.44,0.648,1.44,1.44v32.537 C149.037,179.832,148.389,180.48,147.597,180.48z"/></g><line style="fill:none;stroke:#444545;stroke-width:1.3333;stroke-miterlimit:10" x1="452.811" x2="452.811" y1="138.385" y2="152.701"/><line style="fill:none;stroke:#444545;stroke-width:1.3333;stroke-miterlimit:10" x1="506.788" x2="506.788" y1="138.385" y2="152.701"/><line style="fill:none;stroke:#444545;stroke-width:1.3333;stroke-miterlimit:10" x1="398.835" x2="398.835" y1="138.385" y2="152.701"/><line style="fill:none;stroke:#444545;stroke-width:1.3333;stroke-miterlimit:10" x1="364.018" x2="524.496" y1="153.218" y2="153.218"/><g><rect style="fill:#fff;stroke:#97caeb;stroke-width:1.3333;stroke-miterlimit:10" width="59.072" height="86.257" x="304.946" y="104.596"/><rect style="fill:#fff;stroke:#97caeb;stroke-width:1.3333;stroke-miterlimit:10" width="59.072" height="86.257" x="300.946" y="108.596"/><rect style="fill:#fff;stroke:#97caeb;stroke-width:1.3333;stroke-miterlimit:10" width="59.072" height="86.257" x="296.946" y="112.596"/><rect style="fill:#97caeb" width="59.072" height="86.257" x="292.947" y="116.596"/></g><g><polygon style="fill:#3d4543" points="329.613 185.603 324.48 181.128 329.613 176.73 329.613 179.134 338.705 179.134 338.705 183.348 329.613 183.348"/><circle style="fill:none;stroke:#3d4543;stroke-width:1.3333;stroke-linecap:round" cx="322.482" cy="181.028" r="17.66"/><polygon style="fill:#3d4543" points="315.468 176.73 320.601 181.205 315.468 185.603 315.468 183.2 306.375 183.2 306.375 178.986 315.468 178.986"/><polygon style="fill:#3d4543" points="327.477 192.493 323.001 197.626 318.603 192.493 321.007 192.493 321.007 183.401 325.221 183.401 325.221 192.493"/><polygon style="fill:#3d4543" points="318.603 169.757 323.078 164.624 327.477 169.757 325.073 169.757 325.073 178.849 320.859 178.849 320.859 169.757"/></g><g><polygon style="fill:#3d4543" points="283.854 71.191 278.721 66.715 283.854 62.317 283.854 64.721 292.947 64.721 292.947 68.935 283.854 68.935"/><circle style="fill:none;stroke:#3d4543;stroke-width:1.3333;stroke-linecap:round" cx="276.724" cy="66.615" r="17.66"/><polygon style="fill:#3d4543" points="269.709 62.317 274.842 66.792 269.709 71.191 269.709 68.787 260.616 68.787 260.616 64.573 269.709 64.573"/><polygon style="fill:#3d4543" points="281.718 78.08 277.242 83.213 272.844 78.08 275.248 78.08 275.248 68.988 279.462 68.988 279.462 78.08"/><polygon style="fill:#3d4543" points="272.844 55.344 277.32 50.211 281.718 55.344 279.314 55.344 279.314 64.436 275.1 64.436 275.1 55.344"/></g><g><path style="fill:none;stroke:#3d4543;stroke-width:1.3333;stroke-linecap:round" d="M469.08,137.862h-32.537 c-0.792,0-1.44-0.648-1.44-1.44v-32.537c0-0.792,0.648-1.44,1.44-1.44h32.537c0.792,0,1.44,0.648,1.44,1.44v32.537 C470.52,137.214,469.872,137.862,469.08,137.862z"/></g><g><path style="fill:none;stroke:#3d4543;stroke-width:1.3333;stroke-linecap:round" d="M523.056,137.862h-32.537 c-0.792,0-1.44-0.648-1.44-1.44v-32.537c0-0.792,0.648-1.44,1.44-1.44h32.537c0.792,0,1.44,0.648,1.44,1.44v32.537 C524.496,137.214,523.848,137.862,523.056,137.862z"/></g><g><path style="fill:none;stroke:#64b145;stroke-width:1.3333;stroke-linecap:round" d="M415.104,137.862h-32.537 c-0.792,0-1.44-0.648-1.44-1.44v-32.537c0-0.792,0.648-1.44,1.44-1.44h32.537c0.792,0,1.44,0.648,1.44,1.44v32.537 C416.544,137.214,415.896,137.862,415.104,137.862z"/></g><line style="fill:none;stroke:#444545;stroke-width:1.3333;stroke-miterlimit:10" x1="452.811" x2="452.811" y1="263.917" y2="278.233"/><line style="fill:none;stroke:#444545;stroke-width:1.3333;stroke-miterlimit:10" x1="506.788" x2="506.788" y1="263.917" y2="278.233"/><line style="fill:none;stroke:#444545;stroke-width:1.3333;stroke-miterlimit:10" x1="398.835" x2="398.835" y1="263.917" y2="278.233"/><line style="fill:none;stroke:#444545;stroke-width:1.3333;stroke-miterlimit:10" x1="364.018" x2="524.496" y1="278.75" y2="278.75"/><g><rect style="fill:#fff;stroke:#97caeb;stroke-width:1.3333;stroke-miterlimit:10" width="59.072" height="86.257" x="304.946" y="230.128"/><rect style="fill:#fff;stroke:#97caeb;stroke-width:1.3333;stroke-miterlimit:10" width="59.072" height="86.257" x="300.946" y="234.128"/><rect style="fill:#fff;stroke:#97caeb;stroke-width:1.3333;stroke-miterlimit:10" width="59.072" height="86.257" x="296.946" y="238.128"/><rect style="fill:#97caeb" width="59.072" height="86.257" x="292.947" y="242.128"/></g><g><polygon style="fill:#3d4543" points="329.613 311.135 324.48 306.66 329.613 302.262 329.613 304.666 338.705 304.666 338.705 308.88 329.613 308.88"/><circle style="fill:none;stroke:#3d4543;stroke-width:1.3333;stroke-linecap:round" cx="322.482" cy="306.56" r="17.66"/><polygon style="fill:#3d4543" points="315.468 302.262 320.601 306.737 315.468 311.135 315.468 308.732 306.375 308.732 306.375 304.518 315.468 304.518"/><polygon style="fill:#3d4543" points="327.477 318.025 323.001 323.158 318.603 318.025 321.007 318.025 321.007 308.933 325.221 308.933 325.221 318.025"/><polygon style="fill:#3d4543" points="318.603 295.289 323.078 290.156 327.477 295.289 325.073 295.289 325.073 304.381 320.859 304.381 320.859 295.289"/></g><g><path style="fill:none;stroke:#3d4543;stroke-width:1.3333;stroke-linecap:round" d="M469.08,263.394h-32.537 c-0.792,0-1.44-0.648-1.44-1.44v-32.537c0-0.792,0.648-1.44,1.44-1.44h32.537c0.792,0,1.44,0.648,1.44,1.44v32.537 C470.52,262.746,469.872,263.394,469.08,263.394z"/></g><g><path style="fill:none;stroke:#3d4543;stroke-width:1.3333;stroke-linecap:round" d="M523.056,263.394h-32.537 c-0.792,0-1.44-0.648-1.44-1.44v-32.537c0-0.792,0.648-1.44,1.44-1.44h32.537c0.792,0,1.44,0.648,1.44,1.44v32.537 C524.496,262.746,523.848,263.394,523.056,263.394z"/></g><g><path style="fill:none;stroke:#64b145;stroke-width:1.3333;stroke-linecap:round" d="M415.104,263.394h-32.537 c-0.792,0-1.44-0.648-1.44-1.44v-32.537c0-0.792,0.648-1.44,1.44-1.44h32.537c0.792,0,1.44,0.648,1.44,1.44v32.537 C416.544,262.746,415.896,263.394,415.104,263.394z"/></g><line style="fill:none;stroke:#444545;stroke-width:1.3333;stroke-miterlimit:10" x1="452.811" x2="452.811" y1="390.83" y2="405.147"/><line style="fill:none;stroke:#444545;stroke-width:1.3333;stroke-miterlimit:10" x1="506.788" x2="506.788" y1="390.83" y2="405.147"/><line style="fill:none;stroke:#444545;stroke-width:1.3333;stroke-miterlimit:10" x1="398.835" x2="398.835" y1="390.83" y2="405.147"/><line style="fill:none;stroke:#444545;stroke-width:1.3333;stroke-miterlimit:10" x1="364.018" x2="524.496" y1="405.664" y2="405.664"/><g><rect style="fill:#fff;stroke:#97caeb;stroke-width:1.3333;stroke-miterlimit:10" width="59.072" height="86.257" x="304.946" y="357.042"/><rect style="fill:#fff;stroke:#97caeb;stroke-width:1.3333;stroke-miterlimit:10" width="59.072" height="86.257" x="300.946" y="361.042"/><rect style="fill:#fff;stroke:#97caeb;stroke-width:1.3333;stroke-miterlimit:10" width="59.072" height="86.257" x="296.946" y="365.042"/><rect style="fill:#97caeb" width="59.072" height="86.257" x="292.947" y="369.042"/></g><g><polygon style="fill:#3d4543" points="329.613 438.049 324.48 433.574 329.613 429.176 329.613 431.58 338.705 431.58 338.705 435.794 329.613 435.794"/><circle style="fill:none;stroke:#3d4543;stroke-width:1.3333;stroke-linecap:round" cx="322.482" cy="433.474" r="17.66"/><polygon style="fill:#3d4543" points="315.468 429.176 320.601 433.651 315.468 438.049 315.468 435.645 306.375 435.645 306.375 431.431 315.468 431.431"/><polygon style="fill:#3d4543" points="327.477 444.939 323.001 450.072 318.603 444.939 321.007 444.939 321.007 435.846 325.221 435.846 325.221 444.939"/><polygon style="fill:#3d4543" points="318.603 422.203 323.078 417.07 327.477 422.203 325.073 422.203 325.073 431.295 320.859 431.295 320.859 422.203"/></g><g><path style="fill:none;stroke:#3d4543;stroke-width:1.3333;stroke-linecap:round" d="M469.08,390.308h-32.537 c-0.792,0-1.44-0.648-1.44-1.44v-32.537c0-0.792,0.648-1.44,1.44-1.44h32.537c0.792,0,1.44,0.648,1.44,1.44v32.537 C470.52,389.66,469.872,390.308,469.08,390.308z"/></g><g><path style="fill:none;stroke:#3d4543;stroke-width:1.3333;stroke-linecap:round" d="M523.056,390.308h-32.537 c-0.792,0-1.44-0.648-1.44-1.44v-32.537c0-0.792,0.648-1.44,1.44-1.44h32.537c0.792,0,1.44,0.648,1.44,1.44v32.537 C524.496,389.66,523.848,390.308,523.056,390.308z"/></g><g><path style="fill:none;stroke:#64b145;stroke-width:1.3333;stroke-linecap:round" d="M415.104,390.308h-32.537 c-0.792,0-1.44-0.648-1.44-1.44v-32.537c0-0.792,0.648-1.44,1.44-1.44h32.537c0.792,0,1.44,0.648,1.44,1.44v32.537 C416.544,389.66,415.896,390.308,415.104,390.308z"/></g></g><g id="En"><text transform="matrix(1 0 0 1 69.3503 165.7812)" style="fill:#3d4543;font-family:'Arial-BoldMT';font-size:10.6664px">VM</text><text transform="matrix(1 0 0 1 15.3742 165.7812)" style="fill:#64b145;font-family:'Arial-BoldMT';font-size:10.6664px">VM</text><text transform="matrix(1 0 0 1 123.3268 165.7812)" style="fill:#3d4543;font-family:'Arial-BoldMT';font-size:10.6664px">VM</text><text transform="matrix(1 0 0 1 33.3869 106.6182)" style="font-family:'ArialMT';font-size:10.6664px">PKS Control Plane</text><text transform="matrix(1 0 0 1 154.2804 61.0425)" style="font-family:'ArialMT';font-size:10.6664px">T1</text><text transform="matrix(1 0 0 1 13.5954 125.5996)"><tspan x="0" y="0" style="font-family:'ArialMT';font-size:10.6664px">Ops </tspan><tspan x=".596" y="12" style="font-family:'ArialMT';font-size:10.6664px">Mgr</tspan></text><text transform="matrix(1 0 0 1 65.1969 137.5996)" style="font-family:'ArialMT';font-size:10.6664px">Bosh</text><text transform="matrix(1 0 0 1 120.6579 125.5996)"><tspan x="0" y="0" style="font-family:'ArialMT';font-size:10.6664px">PKS </tspan><tspan x="2.671" y="12" style="font-family:'ArialMT';font-size:10.6664px">VM</tspan></text><text transform="matrix(1 0 0 1 5.5705 208.8232)" style="font-family:'ArialMT';font-size:10.6664px">Routable IP</text><text transform="matrix(1 0 0 1 444.8097 123.1616)" style="fill:#3d4543;font-family:'Arial-BoldMT';font-size:10.6664px">VM</text><text transform="matrix(1 0 0 1 498.7873 123.1616)" style="fill:#3d4543;font-family:'Arial-BoldMT';font-size:10.6664px">VM</text><text transform="matrix(1 0 0 1 390.8332 123.1616)" style="fill:#64b145;font-family:'Arial-BoldMT';font-size:10.6664px">VM</text><text transform="matrix(1 0 0 1 316.2599 131.9053)"><tspan x="0" y="0" style="font-family:'ArialMT';font-size:10.6664px">T1 </tspan><tspan x="-10.067" y="12" style="font-family:'ArialMT';font-size:10.6664px">MGMT </tspan><tspan x="-7.708" y="23.999" style="font-family:'ArialMT';font-size:10.6664px">K8s-1</tspan></text><text transform="matrix(1 0 0 1 5.4738 14.1533)" style="font-family:'ArialMT';font-size:10.6664px">NSX-T Virtual Network</text><text transform="matrix(1 0 0 1 270.5011 44.3447)" style="font-family:'ArialMT';font-size:10.6664px">T0</text><text transform="matrix(1 0 0 1 389.5714 82.9824)"><tspan x="0" y="0" style="font-family:'ArialMT';font-size:10.6664px">K8s </tspan><tspan x="-7.109" y="12" style="font-family:'ArialMT';font-size:10.6664px">Master</tspan></text><text transform="matrix(1 0 0 1 445.7375 169.876)" style="font-family:'ArialMT';font-size:10.6664px">Non-Routable IP</text><text transform="matrix(1 0 0 1 443.549 82.9824)"><tspan x="0" y="0" style="font-family:'ArialMT';font-size:10.6664px">K8s </tspan><tspan x="-7.995" y="12" style="font-family:'ArialMT';font-size:10.6664px">Worker</tspan></text><text transform="matrix(1 0 0 1 497.5246 82.9824)"><tspan x="0" y="0" style="font-family:'ArialMT';font-size:10.6664px">K8s </tspan><tspan x="-7.995" y="12" style="font-family:'ArialMT';font-size:10.6664px">Worker</tspan></text><text transform="matrix(1 0 0 1 444.8097 248.6943)" style="fill:#3d4543;font-family:'Arial-BoldMT';font-size:10.6664px">VM</text><text transform="matrix(1 0 0 1 498.7873 248.6943)" style="fill:#3d4543;font-family:'Arial-BoldMT';font-size:10.6664px">VM</text><text transform="matrix(1 0 0 1 390.8332 248.6943)" style="fill:#64b145;font-family:'Arial-BoldMT';font-size:10.6664px">VM</text><text transform="matrix(1 0 0 1 316.2599 257.4365)"><tspan x="0" y="0" style="font-family:'ArialMT';font-size:10.6664px">T1 </tspan><tspan x="-10.067" y="12" style="font-family:'ArialMT';font-size:10.6664px">MGMT </tspan><tspan x="-7.708" y="23.999" style="font-family:'ArialMT';font-size:10.6664px">K8s-2</tspan></text><text transform="matrix(1 0 0 1 389.5714 208.5137)"><tspan x="0" y="0" style="font-family:'ArialMT';font-size:10.6664px">K8s </tspan><tspan x="-7.109" y="12" style="font-family:'ArialMT';font-size:10.6664px">Master</tspan></text><text transform="matrix(1 0 0 1 445.7375 295.4072)" style="font-family:'ArialMT';font-size:10.6664px">Non-Routable IP</text><text transform="matrix(1 0 0 1 443.549 208.5137)"><tspan x="0" y="0" style="font-family:'ArialMT';font-size:10.6664px">K8s </tspan><tspan x="-7.995" y="12" style="font-family:'ArialMT';font-size:10.6664px">Worker</tspan></text><text transform="matrix(1 0 0 1 497.5246 208.5137)"><tspan x="0" y="0" style="font-family:'ArialMT';font-size:10.6664px">K8s </tspan><tspan x="-7.995" y="12" style="font-family:'ArialMT';font-size:10.6664px">Worker</tspan></text><text transform="matrix(1 0 0 1 444.8097 375.6084)" style="fill:#3d4543;font-family:'Arial-BoldMT';font-size:10.6664px">VM</text><text transform="matrix(1 0 0 1 498.7873 375.6084)" style="fill:#3d4543;font-family:'Arial-BoldMT';font-size:10.6664px">VM</text><text transform="matrix(1 0 0 1 390.8332 375.6084)" style="fill:#64b145;font-family:'Arial-BoldMT';font-size:10.6664px">VM</text><text transform="matrix(1 0 0 1 316.2599 384.3516)"><tspan x="0" y="0" style="font-family:'ArialMT';font-size:10.6664px">T1 </tspan><tspan x="-10.067" y="12" style="font-family:'ArialMT';font-size:10.6664px">MGMT </tspan><tspan x="-8.594" y="23.999" style="font-family:'ArialMT';font-size:10.6664px">K8s-N</tspan></text><text transform="matrix(1 0 0 1 389.5714 335.4277)"><tspan x="0" y="0" style="font-family:'ArialMT';font-size:10.6664px">K8s </tspan><tspan x="-7.109" y="12" style="font-family:'ArialMT';font-size:10.6664px">Master</tspan></text><text transform="matrix(1 0 0 1 445.7375 422.3223)" style="font-family:'ArialMT';font-size:10.6664px">Non-Routable IP</text><text transform="matrix(1 0 0 1 443.549 335.4277)"><tspan x="0" y="0" style="font-family:'ArialMT';font-size:10.6664px">K8s </tspan><tspan x="-7.995" y="12" style="font-family:'ArialMT';font-size:10.6664px">Worker</tspan></text><text transform="matrix(1 0 0 1 497.5246 335.4277)"><tspan x="0" y="0" style="font-family:'ArialMT';font-size:10.6664px">K8s </tspan><tspan x="-7.995" y="12" style="font-family:'ArialMT';font-size:10.6664px">Worker</tspan></text><text transform="matrix(1 0 0 1 221.8127 14.1533)" style="font-family:'ArialMT';font-size:10.6664px">Dedicated Tier-1 router</text></g></g></g></switch></svg>